<svg width="38" height="28" viewBox="0 0 38 28" fill="none" xmlns="http://www.w3.org/2000/svg">
<path d="M31.6029 2.32221C29.223 1.24895 26.6721 0.45567 24.0045 0.00458885C23.9807 2.81255e-05 23.9562 0.00296722 23.9341 0.0129997C23.9121 0.0230322 23.8938 0.0396617 23.8816 0.0605852C23.555 0.634547 23.191 1.38272 22.9359 1.97379C20.1067 1.55108 17.2304 1.55108 14.4011 1.97379C14.117 1.31873 13.7966 0.680004 13.4414 0.0605852C13.4294 0.0394041 13.4112 0.0223984 13.3892 0.0118375C13.3673 0.00127651 13.3426 -0.00233756 13.3185 0.00147779C10.6525 0.452559 8.10155 1.24584 5.72015 2.32066C5.69966 2.32925 5.68229 2.34391 5.67037 2.36266C0.829804 9.47886 -0.496997 16.4193 0.154737 23.2726C0.156551 23.2894 0.161761 23.3056 0.170051 23.3203C0.17834 23.3351 0.189536 23.3479 0.202957 23.3582C3.02827 25.4151 6.17953 26.9821 9.52479 27.9934C9.54811 28.0006 9.57305 28.0006 9.59636 27.9934C9.61967 27.9861 9.64026 27.9721 9.65545 27.953C10.3741 26.9886 11.0149 25.9698 11.5624 24.8996C11.5951 24.8374 11.564 24.7627 11.4987 24.7379C10.4938 24.3595 9.52025 23.9028 8.58685 23.3722C8.57008 23.3626 8.55594 23.349 8.54572 23.3326C8.53549 23.3162 8.52949 23.2976 8.52826 23.2783C8.52703 23.259 8.5306 23.2398 8.53865 23.2222C8.54671 23.2046 8.55899 23.1894 8.57441 23.1777C8.77039 23.0331 8.96638 22.8822 9.15303 22.7313C9.16984 22.7178 9.19007 22.7091 9.2115 22.7064C9.23292 22.7036 9.25468 22.7069 9.27436 22.7158C15.3826 25.4596 21.998 25.4596 28.0347 22.7158C28.0544 22.7063 28.0764 22.7027 28.0981 22.7051C28.1199 22.7076 28.1405 22.7161 28.1576 22.7298C28.3442 22.8822 28.5387 23.0331 28.7362 23.1777C28.7518 23.1891 28.7642 23.2042 28.7726 23.2216C28.7809 23.239 28.7847 23.2582 28.7838 23.2775C28.7829 23.2967 28.7772 23.3155 28.7673 23.332C28.7573 23.3485 28.7434 23.3623 28.7269 23.3722C27.7967 23.9072 26.8292 24.3599 25.8135 24.7363C25.7979 24.742 25.7837 24.7509 25.7718 24.7625C25.7599 24.7741 25.7507 24.7881 25.7446 24.8035C25.7386 24.819 25.7359 24.8355 25.7368 24.8521C25.7377 24.8687 25.7421 24.8849 25.7497 24.8996C26.3097 25.9682 26.9505 26.9855 27.6552 27.9514C27.6698 27.9712 27.6902 27.9861 27.7136 27.9939C27.737 28.0016 27.7622 28.002 27.7858 27.995C31.1368 26.9865 34.2932 25.4188 37.1216 23.3582C37.1354 23.3485 37.147 23.336 37.1556 23.3215C37.1642 23.3071 37.1696 23.2909 37.1714 23.2742C37.9491 15.3507 35.8679 8.46626 31.6511 2.36577C31.6408 2.34594 31.6237 2.33049 31.6029 2.32221ZM12.4755 19.0993C10.6369 19.0993 9.12037 17.4366 9.12037 15.3974C9.12037 13.3566 10.6074 11.6954 12.4755 11.6954C14.3576 11.6954 15.8601 13.3706 15.8306 15.3974C15.8306 17.4381 14.3436 19.0993 12.4755 19.0993ZM24.8802 19.0993C23.0401 19.0993 21.5251 17.4366 21.5251 15.3974C21.5251 13.3566 23.0106 11.6954 24.8802 11.6954C26.7623 11.6954 28.2649 13.3706 28.2353 15.3974C28.2353 17.4381 26.7639 19.0993 24.8802 19.0993Z" fill="#F5F5F5"/>
</svg>
