<svg width="41" height="21" viewBox="0 0 41 21" fill="none" xmlns="http://www.w3.org/2000/svg">
<path d="M24.6 0C21.6467 0 18.86 1.44129 17.22 3.77629V6.59593L17.4762 6.77216L17.7837 5.96655C18.9305 3.3074 21.6531 1.61122 24.5231 1.61122C28.6231 1.61122 31.9031 4.83366 31.9031 8.8617V10.4729L33.1331 9.99459C33.7065 9.75228 34.2766 9.66731 34.85 9.66731C37.31 9.66731 39.36 11.6813 39.36 14.0982C39.36 16.515 37.31 18.529 34.85 18.529H17.22V20.1402H34.85C38.2133 20.1402 41 17.4024 41 14.0982C41 10.7939 38.2133 8.0561 34.85 8.0561C34.44 8.0561 34.03 8.12533 33.62 8.20715C33.21 3.6158 29.3566 0 24.6 0ZM13.94 4.02805C13.3666 4.02805 12.7933 4.09728 12.3 4.1791V20.1402H13.94V4.02805ZM14.76 4.02805V20.1402H16.4V4.43085C15.9067 4.27036 15.3334 4.10987 14.76 4.02805ZM11.48 4.43085C10.9066 4.67316 10.3333 4.91548 9.84 5.23646V20.1402H11.48V4.43085ZM9.02 5.89102C8.36336 6.45432 7.79 7.17496 7.38 7.98057V20.1402H9.02V5.89102ZM5.33 8.8617C5.18586 8.87115 5.04172 8.89632 4.92 8.93723V20.0647C5.16664 20.1465 5.49336 20.1402 5.74 20.1402H6.56V8.93723C6.31336 8.85541 5.98664 8.8617 5.74 8.8617C5.61828 8.8617 5.47414 8.85226 5.33 8.8617ZM4.1 9.11346C3.52664 9.27395 2.95328 9.51626 2.46 9.91907V19.0829C2.95328 19.4039 3.52664 19.728 4.1 19.8885V9.11346ZM1.64 10.5484C0.65664 11.5964 0 12.9716 0 14.501C0 16.0304 0.65664 17.4056 1.64 18.4535V10.5484Z" fill="#F84078"/>
</svg>
