<svg width="35" height="28" viewBox="0 0 35 28" fill="none" xmlns="http://www.w3.org/2000/svg">
<path d="M34.775 3.32131C33.5083 3.88257 32.1477 4.2618 30.7172 4.43321C32.1932 3.55005 33.2974 2.16006 33.8239 0.522605C32.4372 1.34627 30.9195 1.92605 29.3368 2.23672C28.2725 1.10034 26.8628 0.347138 25.3266 0.0940371C23.7904 -0.159063 22.2135 0.102103 20.841 0.836989C19.4684 1.57188 18.3768 2.73937 17.7357 4.1582C17.0946 5.57703 16.9399 7.16783 17.2956 8.6836C14.4858 8.54252 11.737 7.81221 9.22774 6.54006C6.71845 5.26791 4.5047 3.48235 2.73015 1.29927C2.12338 2.34594 1.77449 3.55947 1.77449 4.85188C1.77382 6.01534 2.06033 7.16099 2.60861 8.18717C3.1569 9.21334 3.94999 10.0883 4.91754 10.7345C3.79544 10.6988 2.6981 10.3956 1.71685 9.85011V9.94112C1.71674 11.5729 2.28119 13.1545 3.31444 14.4175C4.34769 15.6805 5.78608 16.5472 7.38556 16.8704C6.34463 17.1521 5.25329 17.1936 4.19397 16.9917C4.64525 18.3958 5.5243 19.6236 6.70806 20.5033C7.89181 21.3829 9.32102 21.8704 10.7956 21.8974C8.29242 23.8625 5.20103 24.9284 2.01872 24.9237C1.455 24.9238 0.891766 24.8909 0.331909 24.8251C3.56214 26.902 7.32237 28.0043 11.1627 28C24.1626 28 31.2694 17.2329 31.2694 7.89481C31.2694 7.59142 31.2618 7.28501 31.2481 6.98162C32.6305 5.98194 33.8237 4.74402 34.7719 3.32586L34.775 3.32131Z" fill="#F5F5F5"/>
</svg>
