<svg width="35" height="28" viewBox="0 0 35 28" fill="none" xmlns="http://www.w3.org/2000/svg">
<path d="M34.4431 3.32131C33.1764 3.88257 31.8158 4.2618 30.3853 4.43321C31.8613 3.55005 32.9655 2.16006 33.492 0.522605C32.1053 1.34627 30.5876 1.92605 29.0049 2.23672C27.9406 1.10034 26.5309 0.347138 24.9947 0.0940371C23.4585 -0.159063 21.8816 0.102103 20.509 0.836989C19.1364 1.57188 18.0449 2.73937 17.4038 4.1582C16.7627 5.57703 16.608 7.16783 16.9637 8.6836C14.1539 8.54252 11.4051 7.81221 8.89583 6.54006C6.38654 5.26791 4.17279 3.48235 2.39824 1.29927C1.79148 2.34594 1.44259 3.55947 1.44259 4.85188C1.44191 6.01534 1.72842 7.16099 2.2767 8.18717C2.82499 9.21334 3.61809 10.0883 4.58563 10.7345C3.46353 10.6988 2.36619 10.3956 1.38494 9.85011V9.94112C1.38483 11.5729 1.94928 13.1545 2.98253 14.4175C4.01578 15.6805 5.45417 16.5472 7.05365 16.8704C6.01272 17.1521 4.92138 17.1936 3.86206 16.9917C4.31334 18.3958 5.19239 19.6236 6.37615 20.5033C7.5599 21.3829 8.98911 21.8704 10.4637 21.8974C7.96051 23.8625 4.86912 24.9284 1.68681 24.9237C1.12309 24.9238 0.559857 24.8909 0 24.8251C3.23023 26.902 6.99046 28.0043 10.8308 28C23.8307 28 30.9375 17.2329 30.9375 7.89481C30.9375 7.59142 30.9299 7.28501 30.9162 6.98162C32.2986 5.98194 33.4918 4.74402 34.44 3.32586L34.4431 3.32131Z" fill="#F84078"/>
</svg>
