<svg width="37" height="28" viewBox="0 0 37 28" fill="none" xmlns="http://www.w3.org/2000/svg">
<path d="M35.9672 4.8125C35.6252 2.88818 33.9955 1.48682 32.1042 1.04932C29.2741 0.4375 24.0363 0 18.3692 0C12.7055 0 7.3839 0.4375 4.55039 1.04932C2.6625 1.48682 1.02945 2.79932 0.68742 4.8125C0.342034 7 0 10.0625 0 14C0 17.9375 0.342034 21 0.771253 23.1875C1.11664 25.1118 2.74633 26.5132 4.63422 26.9507C7.63875 27.5625 12.7894 28 18.4564 28C24.1234 28 29.2741 27.5625 32.2786 26.9507C34.1665 26.5132 35.7962 25.2007 36.1416 23.1875C36.4836 21 36.9128 17.8486 37 14C36.8256 10.0625 36.3964 7 35.9672 4.8125ZM13.735 20.125V7.875L24.2073 14L13.735 20.125Z" fill="#F84078"/>
</svg>
